# AST/ASF file generated using VICON BodyLanguage
# -----------------------------------------------
:version 1.10
:name VICON
:units
  mass 1.0
  length 0.45
  angle deg
:documentation
   .ast/.asf automatically generated from VICON data using
   VICON BodyBuilder and BodyLanguage model FoxedUp or BRILLIANT.MOD
:root
   order TX TY TZ RX RY RZ
   axis XYZ
   position 0 0 0  
   orientation 0 0 0 
:bonedata
  begin
     id 1 
     name lhipjoint
     direction 0.722297 -0.617336 0.311742 
     length 2.6635 
     axis 0 0 0  XYZ
  end
  begin
     id 2 
     name lfemur
     direction 0.34202 -0.939693 0  
     length 7.39349  
     axis 0 0 20  XYZ
    dof rx ry rz
    limits (-160.0 20.0)
           (-70.0 70.0)
           (-60.0 70.0)
  end
  begin
     id 3 
     name ltibia
     direction 0.34202 -0.939693 0   
     length 7.36294   
     axis 0 0 20   XYZ
    dof rx
    limits (-10.0 170.0)
  end
  begin
     id 4 
     name lfoot
     direction 0.104879 -0.288152 0.951824   
     length 2.16981   
     axis -90 7.62852e-016 20   XYZ
    dof rx rz
    limits (-45.0 90.0)
           (-70.0 20.0)
  end
  begin
     id 5 
     name ltoes
     direction 1.53586e-011 -4.21895e-011 1   
     length 1.08218   
     axis -90 7.62852e-016 20   XYZ
    dof rx
    limits (-90.0 20.0)
  end
  begin
     id 6 
     name rhipjoint
     direction -0.75102 -0.589393 0.297631   
     length 2.78977  
     axis 0 0 0  XYZ 
  end
  begin
     id 7 
     name rfemur
     direction -0.34202 -0.939693 0   
     length 7.46076   
     axis 0 0 -20   XYZ
    dof rx ry rz
    limits (-160.0 20.0)
           (-70.0 70.0)
           (-70.0 60.0)
  end
  begin
     id 8 
     name rtibia
     direction -0.34202 -0.939693 0   
     length 7.31726   
     axis 0 0 -20   XYZ
    dof rx
    limits (-10.0 170.0)
 end
 begin
     id 9 
     name rfoot
     direction -0.107991 -0.296704 0.948844   
     length 2.09388  
     axis -90 -7.62852e-016 -20   XYZ
    dof rx rz
    limits (-45.0 90.0)
           (-20.0 70.0)
  end
  begin
     id 10 
     name rtoes
     direction -1.53559e-011 -4.21911e-011 1   
     length 1.04433   
     axis -90 -7.62852e-016 -20   XYZ
    dof rx
    limits (-90.0 20.0)
  end
  begin
     id 11 
     name lowerback
     direction 0.0165164 0.98272 0.184358   
     length 1.71896   
     axis 0 0 0   XYZ
    dof rx ry rz
    limits (-20.0 45.0)
           (-30.0 30.0)
           (-30.0 30.0)
  end
  begin
     id 12 
     name upperback
     direction -0.00887249 0.992297 0.123566   
     length 1.71504   
     axis 0 0 0   XYZ
    dof rx ry rz
    limits (-20.0 45.0)
           (-30.0 30.0)
           (-30.0 30.0)
  end
  begin
     id 13 
     name thorax
     direction -0.0157026 0.998908 0.0440032   
     length 1.77022   
     axis 0 0 0   XYZ
    dof rx ry rz
    limits (-20.0 45.0)
           (-30.0 30.0)
           (-30.0 30.0)
  end
  begin
     id 14 
     name lowerneck
     direction -0.0238856 0.998137 0.0561411   
     length 1.89341   
     axis 0 0 0   XYZ
    dof rx ry rz
    limits (-20.0 45.0)
           (-30.0 30.0)
           (-30.0 30.0)
  end
  begin
     id 15 
     name upperneck
     direction 0.0276574 0.952253 -0.304056   
     length 1.86999   
     axis 0 0 0   XYZ
    dof rx ry rz
    limits (-20.0 45.0)
           (-30.0 30.0)
           (-30.0 30.0)
  end
  begin
     id 16
     name head
     direction 0.00800083 0.994258 -0.106712  
     length 1.91492  
     axis 0 0 0   XYZ
    dof rx ry rz
    limits (-20.0 45.0)
           (-30.0 30.0)
           (-30.0 30.0)
  end
  begin
     id 17 
     name lclavicle
     direction 0.97203 0.225407 0.06595  
     length 3.34889  
     axis 0 0 0   XYZ
    dof ry rz
    limits (-20.0 10.0)
           (0.0 20.0)
  end
  begin
     id 18 
     name lhumerus
     direction 1 -4.48973e-011 2.20267e-027   
     length 4.85645   
     axis 180 -30 -90   XYZ
    dof rx ry rz
    limits (-60.0 90.0)
           (-90.0 90.0)
           (-90.0 90.0)
  end
  begin
     id 19
     name lradius
     direction 1 -4.4897e-011 4.60472e-027   
     length 2.79874   
     axis 180 -30 -90   XYZ
    dof rx
    limits (-10.0 170.0)
  end
  begin
     id 20
     name lwrist
     direction 1 -4.48952e-011 1.14928e-026   
     length 1.39937   
     axis -6.29373e-015 90 90   XYZ
    dof ry
    limits (-180.0 0.0)
 end
  begin
     id 21 
     name lhand
     direction 1 -4.48967e-011 2.29886e-026   
     length 0.573398   
     axis -1.46689e-014 90 90   XYZ
    dof rx rz
    limits (-90.0 90.0)
           (-45.0 45.0)
  end
  begin
     id 22 
     name lfingers
     direction 1 -4.48955e-011 4.59726e-026   
     length 0.462289   
     axis -2.93383e-014 90 90   XYZ
    dof rx
    limits (0.0 90.0)
  end
  begin
     id 23
     name lthumb
     direction 0.707107 -6.34866e-011 0.707107   
     length 0.663757   
     axis -90 45 5.69224e-014   XYZ
    dof rx rz
    limits (-45.0 45.0)
           (-45.0 45.0)
  end
  begin
     id 24 
     name rclavicle
     direction -0.981571 0.157346 0.108443   
     length 3.35257  
     axis 0 0 0   XYZ 
    dof ry rz
    limits (-10.0 20.0)
           (-20.0 0.0)
  end
  begin
     id 25 
     name rhumerus
     direction -1 -4.48967e-011 8.58308e-029  
     length 4.67018   
     axis 180 30 90   XYZ
    dof rx ry rz
    limits (-90.0 60.0)
           (-90.0 90.0)
           (-90.0 90.0)
  end
  begin
     id 26 
     name rradius
     direction -1 -4.48958e-011 4.52548e-027   
     length 2.65534   
     axis 180 30 90   XYZ
    dof rx
    limits (-10.0 170.0)
  end
  begin
     id 27 
     name rwrist
     direction -1 -4.48977e-011 1.14952e-026   
     length 1.32767   
     axis -6.29373e-015 -90 -90   XYZ
    dof ry
    limits (-180.0 0.0)
  end
  begin
     id 28
     name rhand
     direction -1 -4.48924e-011 2.29804e-026   
     length 0.594069   
     axis -1.46689e-014 -90 -90   XYZ
    dof rx rz
    limits (-90.0 90.0)
           (-45.0 45.0)
  end
  begin
     id 29
     name rfingers
     direction -1 -4.48998e-011 4.59888e-026   
     length 0.478954   
     axis -2.93383e-014 -90 -90   XYZ
    dof rx
    limits (0.0 90.0)
  end
  begin
     id 30
     name rthumb
     direction -0.707107 -6.34933e-011 0.707107   
     length 0.687685   
     axis -90 -45 -5.69224e-014   XYZ
    dof rx rz
    limits (-45.0 45.0)
           (-45.0 45.0)
  end
:hierarchy
  begin
    root lhipjoint rhipjoint lowerback
    lhipjoint lfemur
    lfemur ltibia
    ltibia lfoot
    lfoot ltoes
    rhipjoint rfemur
    rfemur rtibia
    rtibia rfoot
    rfoot rtoes
    lowerback upperback
    upperback thorax
    thorax lowerneck lclavicle rclavicle
    lowerneck upperneck
    upperneck head
    lclavicle lhumerus
    lhumerus lradius
    lradius lwrist
    lwrist lhand lthumb
    lhand lfingers
    rclavicle rhumerus
    rhumerus rradius
    rradius rwrist
    rwrist rhand rthumb
    rhand rfingers
  end

#!OML:ASF E:\pregnant2\Project 1\Capture day 1\Session 1\pregnant2.ASF
:FULLY-SPECIFIED
:DEGREES
130
root 8.32452 17.1247 6.20911 -149.763 -14.7577 183.415
lowerback -18.679 3.51435 5.58158
upperback -13.2673 1.27957 -0.994594
thorax -3.70349 -0.907206 -3.93316
lowerneck -3.86851 6.62525 8.22264
upperneck 32.8633 3.90671 3.46342
head 11.5504 1.93295 0.0419409
rclavicle -6.83322e-015 -4.17448e-015
rhumerus -100.854 21.5562 -127.136
rradius 105.925
rwrist -54.7308
rhand -33.4332 -68.3317
rfingers 7.12502
rthumb 173.368 -81.7922
lclavicle -6.83322e-015 -4.17448e-015
lhumerus -106.332 -34.7325 134.554
lradius 100.223
lwrist 77.7597
lhand -29.2228 70.5366
lfingers 7.12502
lthumb 177.433 79.4991
rfemur -42.094 6.89545 26.6186
rtibia 30.4954
rfoot -18.3963 -20.8442
rtoes 1.77264
lfemur -61.8307 3.59724 -22.1234
ltibia 41.4208
lfoot -9.36198 27.2758
ltoes -5.51532
131
root 8.30566 17.1405 6.13195 -149.755 -15.1404 183.488
lowerback -18.7493 3.57785 5.64003
upperback -13.3558 1.33237 -1.05134
thorax -3.75951 -0.899845 -4.01707
lowerneck -3.91581 6.48621 8.16942
upperneck 32.4763 3.88575 3.28286
head 11.4009 1.92241 -0.0169187
rclavicle -1.62258e-014 -9.93923e-016
rhumerus -100.965 21.4223 -127.259
rradius 105.881
rwrist -54.8165
rhand -33.3639 -68.2854
rfingers 7.12502
rthumb 173.435 -81.8364
lclavicle -1.62258e-014 -9.93923e-016
lhumerus -106.549 -34.737 134.676
lradius 100.249
lwrist 77.8136
lhand -29.2231 70.854
lfingers 7.12502
lthumb 177.433 79.1817
rfemur -41.473 6.75726 26.8221
rtibia 29.8348
rfoot -18.3541 -21.0183
rtoes 1.7312
lfemur -61.7523 3.42441 -21.9683
ltibia 39.5832
lfoot -9.12285 28.0177
ltoes -4.66505
132
root 8.28552 17.1565 6.05586 -149.761 -15.5187 183.556
lowerback -18.8164 3.63917 5.7019
upperback -13.43 1.386 -1.11138
thorax -3.80099 -0.889803 -4.10666
lowerneck -4.0147 6.35135 8.07958
upperneck 32.149 3.85751 3.10927
head 11.2848 1.90431 -0.0658444
rclavicle -1.97542e-014 -4.31363e-014
rhumerus -101.053 21.31 -127.381
rradius 105.837
rwrist -54.9051
rhand -33.2279 -68.2953
rfingers 7.12502
rthumb 173.566 -81.8225
lclavicle -1.97542e-014 -4.31363e-014
lhumerus -106.756 -34.7713 134.809
lradius 100.259
lwrist 77.8831
lhand -29.2275 71.1379
lfingers 7.12502
lthumb 177.429 78.8979
rfemur -40.8268 6.6256 27.0121
rtibia 29.1452
rfoot -18.2894 -21.2029
rtoes 1.6785
lfemur -61.6225 3.19763 -21.7514
ltibia 37.772
lfoot -8.87018 28.7496
ltoes -3.82853
133
root 8.26407 17.1722 5.98104 -149.789 -15.8895 183.615
lowerback -18.8733 3.69546 5.76429
upperback -13.4843 1.43956 -1.17369
thorax -3.82529 -0.876092 -4.1995
lowerneck -4.15517 6.22125 7.97033
upperneck 31.8702 3.82827 2.92819
head 11.1962 1.88227 -0.112775
rclavicle 9.19379e-015 8.34896e-015
rhumerus -101.111 21.2307 -127.502
rradius 105.789
rwrist -55.0062
rhand -33.0192 -68.385
rfingers 7.12502
rthumb 173.767 -81.7267
lclavicle 9.19379e-015 8.34896e-015
lhumerus -106.948 -34.8425 134.95
lradius 100.254
lwrist 77.9776
lhand -29.2731 72.5823
lfingers 7.12502
lthumb 177.385 77.454
rfemur -40.1511 6.50118 27.1853
rtibia 28.4374
rfoot -18.2099 -21.3983
rtoes 1.62667
lfemur -61.4365 2.91259 -21.468
ltibia 36.0089
lfoot -8.63525 29.4876
ltoes -3.00468
134
root 8.24119 17.1871 5.90613 -149.836 -16.2543 183.673
lowerback -18.9369 3.75229 5.82733
upperback -13.5282 1.49551 -1.23558
thorax -3.83407 -0.859354 -4.29203
lowerneck -4.29757 6.09433 7.85099
upperneck 31.6354 3.79733 2.73382
head 11.1258 1.85479 -0.162748
rclavicle 3.75703e-014 1.13307e-014
rhumerus -101.16 21.1687 -127.622
rradius 105.736
rwrist -55.1137
rhand -32.7908 -68.5015
rfingers 7.12502
rthumb 173.988 -81.6038
lclavicle 3.75703e-014 1.13307e-014
lhumerus -107.14 -34.9287 135.108
lradius 100.238
lwrist 78.0858
lhand -29.3972 74.8456
lfingers 7.12502
lthumb 177.265 75.1922
rfemur -39.4531 6.38807 27.3478
rtibia 27.7251
rfoot -18.135 -21.6004
rtoes 1.58926
lfemur -61.2051 2.56204 -21.1012
ltibia 34.3198
lfoot -8.44935 30.2562
ltoes -2.21226
135
root 8.21661 17.2009 5.8313 -149.887 -16.6091 183.73
lowerback -19.0123 3.81078 5.89469
upperback -13.5641 1.55324 -1.30096
thorax -3.82747 -0.840951 -4.39055
lowerneck -4.45039 5.97144 7.73862
upperneck 31.4429 3.76858 2.51165
head 11.0755 1.82453 -0.22329
rclavicle -2.06985e-014 -9.54166e-015
rhumerus -101.198 21.1197 -127.751
rradius 105.683
rwrist -55.2341
rhand -32.5652 -68.5961
rfingers 7.12502
rthumb 174.206 -81.5031
lclavicle -2.06985e-014 -9.54166e-015
lhumerus -107.321 -35.0345 135.256
lradius 100.229
lwrist 78.1952
lhand -29.5786 77.7395
lfingers 7.12502
lthumb 177.09 72.3006
rfemur -38.7542 6.2836 27.4984
rtibia 27.0199
rfoot -18.0571 -21.8068
rtoes 1.55593
lfemur -60.9494 2.12894 -20.6342
ltibia 32.7269
lfoot -8.32865 31.0981
ltoes -1.37327
136
root 8.19067 17.2132 5.75664 -149.946 -16.9569 183.783
lowerback -19.0897 3.86918 5.9571
upperback -13.5958 1.61227 -1.36331
thorax -3.81492 -0.820654 -4.48283
lowerneck -4.59804 5.85015 7.61039
upperneck 31.2881 3.73811 2.27928
head 11.0387 1.78838 -0.285121
rclavicle 2.22142e-014 1.31198e-014
rhumerus -101.231 21.0798 -127.875
rradius 105.634
rwrist -55.3603
rhand -32.3753 -68.71
rfingers 7.12502
rthumb 174.389 -81.3843
lclavicle 2.22142e-014 1.31198e-014
lhumerus -107.496 -35.1488 135.414
lradius 100.219
lwrist 78.3116
lhand -29.7227 80.8372
lfingers 7.12502
lthumb 176.95 69.2048
rfemur -38.0557 6.18706 27.6382
rtibia 26.3343
rfoot -17.9875 -22.0185
rtoes 1.5151
lfemur -60.6724 1.59949 -20.054
ltibia 31.2503
lfoot -8.2866 32.0287
ltoes -0.454667
137
root 8.16332 17.224 5.68218 -150.014 -17.2944 183.831
lowerback -19.1622 3.93034 6.01087
upperback -13.6386 1.67364 -1.42627
thorax -3.817 -0.800715 -4.5703
lowerneck -4.6928 5.72529 7.48216
upperneck 31.1625 3.70014 2.02629
head 11.0033 1.74249 -0.356691
rclavicle 1.64991e-014 -1.86858e-014
rhumerus -101.288 21.0247 -128.009
rradius 105.591
rwrist -55.4966
rhand -32.253 -68.8363
rfingers 7.12502
rthumb 174.507 -81.2549
lclavicle 1.64991e-014 -1.86858e-014
lhumerus -107.676 -35.2536 135.568
lradius 100.22
lwrist 78.4115
lhand -29.8333 83.3743
lfingers 7.12502
lthumb 176.844 66.6694
rfemur -37.3641 6.09874 27.7644
rtibia 25.6799
rfoot -17.928 -22.2337
rtoes 1.46307
lfemur -60.3807 0.967676 -19.3561
ltibia 29.9045
lfoot -8.32821 33.0666
ltoes 0.621971
138
root 8.13468 17.2329 5.6081 -150.072 -17.6224 183.869
lowerback -19.2436 3.98956 6.05346
upperback -13.6767 1.73398 -1.4913
thorax -3.80948 -0.779901 -4.65382
lowerneck -4.80984 5.60378 7.34933
upperneck 31.08 3.66248 1.75779
head 10.9894 1.69331 -0.432543
rclavicle -4.07509e-015 -3.18055e-015
rhumerus -101.327 20.9794 -128.142
rradius 105.551
rwrist -55.6421
rhand -32.1849 -68.9454
rfingers 7.12502
rthumb 174.573 -81.1441
lclavicle -4.07509e-015 -3.18055e-015
lhumerus -107.847 -35.3755 135.717
lradius 100.24
lwrist 78.5076
lhand -29.9182 84.7412
lfingers 7.12502
lthumb 176.762 65.3037
rfemur -36.7032 6.02065 27.8696
rtibia 25.0696
rfoot -17.8808 -22.4578
rtoes 1.40112
lfemur -60.1014 0.24102 -18.5587
ltibia 28.7029
lfoot -8.39628 34.187
ltoes 1.82676
139
root 8.10475 17.2399 5.53374 -150.139 -17.9466 183.9
lowerback -19.3256 4.0454 6.08863
upperback -13.7113 1.79172 -1.55796
thorax -3.79785 -0.759281 -4.73534
lowerneck -4.91781 5.48373 7.21872
upperneck 31.0351 3.62225 1.47334
head 10.9888 1.6389 -0.515287
rclavicle 6.36111e-015 -3.97569e-015
rhumerus -101.361 20.9353 -128.277
rradius 105.513
rwrist -55.7964
rhand -32.1702 -69.0484
rfingers 7.12502
rthumb 174.587 -81.0407
lclavicle 6.36111e-015 -3.97569e-015
lhumerus -108.01 -35.5078 135.852
lradius 100.286
lwrist 78.5783
lhand -29.9387 85.0615
lfingers 7.12502
lthumb 176.742 64.9837
rfemur -36.0561 5.94513 27.964
rtibia 24.5147
rfoot -17.8627 -22.686
rtoes 1.34065
lfemur -59.8241 -0.546584 -17.6978
ltibia 27.6561
lfoot -8.46532 35.3239
ltoes 3.12298
140
root 8.07358 17.2449 5.45914 -150.215 -18.2658 183.924
lowerback -19.4006 4.09919 6.11927
upperback -13.7434 1.84899 -1.63036
thorax -3.7869 -0.738267 -4.82066
lowerneck -5.02416 5.36734 7.0891
upperneck 31.0316 3.57961 1.18233
head 11.0043 1.58024 -0.60126
rclavicle 4.34344e-014 -9.54166e-015
rhumerus -101.385 20.887 -128.418
rradius 105.472
rwrist -55.9563
rhand -32.1808 -69.126
rfingers 7.12502
rthumb 174.577 -80.9634
lclavicle 4.34344e-014 -9.54166e-015
lhumerus -108.185 -35.6475 135.99
lradius 100.352
lwrist 78.6165
lhand -29.9043 84.0401
lfingers 7.12502
lthumb 176.775 66.0046
rfemur -35.4296 5.87624 28.0458
rtibia 24.0275
rfoot -17.8826 -22.922
rtoes 1.28826
lfemur -59.5581 -1.36007 -16.8193
ltibia 26.7746
lfoot -8.49913 36.4009
ltoes 4.40518
141
root 8.04103 17.2473 5.38424 -150.297 -18.5814 183.945
lowerback -19.4736 4.15043 6.15166
upperback -13.768 1.9048 -1.70754
thorax -3.76857 -0.7169 -4.9125
lowerneck -5.15154 5.25656 6.97292
upperneck 31.0724 3.53933 0.872644
head 11.0422 1.52036 -0.696124
rclavicle -3.5334e-014 -6.0033e-014
rhumerus -101.388 20.8442 -128.56
rradius 105.429
rwrist -56.1246
rhand -32.2016 -69.1415
rfingers 7.12502
rthumb 174.557 -80.9484
lclavicle -3.5334e-014 -6.0033e-014
lhumerus -108.356 -35.805 136.112
lradius 100.444
lwrist 78.6158
lhand -29.7761 82.9805
lfingers 7.12502
lthumb 176.899 67.0623
rfemur -34.8333 5.80577 28.124
rtibia 23.6193
rfoot -17.9395 -23.1603
rtoes 1.23197
lfemur -59.315 -2.15511 -15.9746
ltibia 26.0678
lfoot -8.4639 37.3499
ltoes 5.6291
142
root 8.00746 17.247 5.30903 -150.389 -18.8948 183.962
lowerback -19.5348 4.19852 6.17302
upperback -13.7909 1.9603 -1.78312
thorax -3.75433 -0.694263 -4.99653
lowerneck -5.27284 5.15578 6.83336
upperneck 31.1594 3.50203 0.583073
head 11.0963 1.45823 -0.780315
rclavicle -2.97183e-014 -1.82882e-014
rhumerus -101.379 20.7995 -128.682
rradius 105.382
rwrist -56.2842
rhand -32.2144 -69.1944
rfingers 7.12502
rthumb 174.544 -80.8958
lclavicle -2.97183e-014 -1.82882e-014
lhumerus -108.522 -35.9661 136.232
lradius 100.556
lwrist 78.5926
lhand -29.6258 81.9432
lfingers 7.12502
lthumb 177.044 68.0976
rfemur -34.2653 5.73447 28.1965
rtibia 23.3022
rfoot -18.0539 -23.3992
rtoes 1.18861
lfemur -59.0892 -2.90017 -15.2185
ltibia 25.5422
lfoot -8.34935 38.1075
ltoes 6.72925
